<svg xmlns="http://www.w3.org/2000/svg" xml:space="preserve" viewBox="0 0 1200 400">
  <g fill="#979797">
    <path d="m383.25 177.4 42-105.9h21.3l41.55 105.9h-24.9l-31.8-87.9h8.55l-32.25 87.9h-24.45zm23.85-19.2V139h57.75v19.2H407.1zM498.45 177.4v-72.9h22.95v72.9h-22.95zm22.95-40.05-9.6-7.5c1.9-8.5 5.1-15.1 9.6-19.8s10.75-7.05 18.75-7.05c3.5 0 6.57.53 9.22 1.58 2.65 1.05 4.97 2.68 6.97 4.88L542.7 126.7c-1-1.1-2.25-1.95-3.75-2.55-1.5-.6-3.2-.9-5.1-.9-3.8 0-6.82 1.18-9.07 3.53-2.26 2.35-3.38 5.87-3.38 10.57zM595.5 178.9c-6.7 0-12.68-1.65-17.93-4.95s-9.4-7.8-12.45-13.5c-3.05-5.7-4.57-12.2-4.57-19.5s1.52-13.8 4.57-19.5c3.05-5.7 7.2-10.2 12.45-13.5 5.25-3.3 11.22-4.95 17.93-4.95 4.9 0 9.32.95 13.27 2.85 3.95 1.9 7.18 4.53 9.68 7.88 2.5 3.35 3.9 7.17 4.2 11.47v31.5c-.3 4.3-1.68 8.12-4.12 11.47-2.45 3.35-5.67 5.98-9.67 7.88-4.01 1.9-8.46 2.85-13.36 2.85zm4.65-20.7c4.9 0 8.85-1.62 11.85-4.88s4.5-7.38 4.5-12.38c0-3.4-.68-6.4-2.03-9-1.35-2.6-3.25-4.62-5.7-6.07-2.45-1.45-5.28-2.18-8.47-2.18-3.2 0-6.03.73-8.47 2.18-2.45 1.45-4.4 3.47-5.85 6.07-1.45 2.6-2.17 5.6-2.17 9 0 3.3.7 6.25 2.1 8.85 1.4 2.6 3.35 4.65 5.85 6.15s5.29 2.26 8.39 2.26zm15.45 19.2v-19.65l3.45-17.7-3.45-17.7V104.5h22.5v72.9h-22.5zM654.29 177.4V68.5h22.95v108.9h-22.95zm46.65 0-25.5-37.8 25.35-35.1h25.65l-30.6 39.45.75-9.45 31.35 42.9h-27zM766.64 178.9c-6.7 0-12.68-1.65-17.93-4.95s-9.4-7.8-12.45-13.5c-3.05-5.7-4.57-12.2-4.57-19.5s1.52-13.8 4.57-19.5c3.05-5.7 7.2-10.2 12.45-13.5 5.25-3.3 11.22-4.95 17.93-4.95 4.9 0 9.32.95 13.27 2.85 3.95 1.9 7.18 4.53 9.68 7.88 2.5 3.35 3.9 7.17 4.2 11.47v31.5c-.3 4.3-1.68 8.12-4.12 11.47-2.45 3.35-5.67 5.98-9.67 7.88-4.01 1.9-8.46 2.85-13.36 2.85zm4.65-20.7c4.9 0 8.85-1.62 11.85-4.88s4.5-7.38 4.5-12.38c0-3.4-.68-6.4-2.03-9-1.35-2.6-3.25-4.62-5.7-6.07-2.45-1.45-5.28-2.18-8.47-2.18-3.2 0-6.03.73-8.47 2.18-2.45 1.45-4.4 3.47-5.85 6.07-1.45 2.6-2.17 5.6-2.17 9 0 3.3.7 6.25 2.1 8.85 1.4 2.6 3.35 4.65 5.85 6.15s5.29 2.26 8.39 2.26zm15.45 19.2v-19.65l3.45-17.7-3.45-17.7V104.5h22.5v72.9h-22.5zM843.29 177.4l-25.2-72.9h22.5l15.6 52.95-6.6.15 17.25-53.1h18.6l17.4 53.1-6.75-.15 15.75-52.95h22.5l-25.2 72.9h-18.75L873.44 127h5.7l-17.25 50.4h-18.6zM973.64 178.9c-6.7 0-12.68-1.65-17.93-4.95s-9.4-7.8-12.45-13.5c-3.05-5.7-4.57-12.2-4.57-19.5s1.52-13.8 4.57-19.5c3.05-5.7 7.2-10.2 12.45-13.5 5.25-3.3 11.22-4.95 17.93-4.95 4.9 0 9.32.95 13.27 2.85 3.95 1.9 7.18 4.53 9.68 7.88 2.5 3.35 3.9 7.17 4.2 11.47v31.5c-.3 4.3-1.68 8.12-4.12 11.47-2.45 3.35-5.67 5.98-9.67 7.88-4.01 1.9-8.46 2.85-13.36 2.85zm4.65-20.7c4.9 0 8.85-1.62 11.85-4.88s4.5-7.38 4.5-12.38c0-3.4-.68-6.4-2.03-9-1.35-2.6-3.25-4.62-5.7-6.07-2.45-1.45-5.28-2.18-8.47-2.18-3.2 0-6.03.73-8.47 2.18-2.45 1.45-4.4 3.47-5.85 6.07-1.45 2.6-2.17 5.6-2.17 9 0 3.3.7 6.25 2.1 8.85 1.4 2.6 3.35 4.65 5.85 6.15s5.29 2.26 8.39 2.26zm15.45 19.2v-19.65l3.45-17.7-3.45-17.7V104.5h22.5v72.9h-22.5zM391.2 317.4V211.5h23.55v105.9H391.2zm18.15 0v-20.7h52.35v20.7h-52.35zM503.7 318.9c-6.7 0-12.68-1.65-17.93-4.95s-9.4-7.8-12.45-13.5c-3.05-5.7-4.57-12.2-4.57-19.5s1.52-13.8 4.57-19.5c3.05-5.7 7.2-10.2 12.45-13.5S497 243 503.7 243c4.9 0 9.32.95 13.27 2.85 3.95 1.9 7.18 4.53 9.68 7.88 2.5 3.35 3.9 7.17 4.2 11.47v31.5c-.3 4.3-1.68 8.12-4.12 11.47-2.45 3.35-5.67 5.98-9.67 7.88-4.01 1.9-8.46 2.85-13.36 2.85zm4.65-20.7c4.9 0 8.85-1.62 11.85-4.88s4.5-7.38 4.5-12.38c0-3.4-.68-6.4-2.03-9-1.35-2.6-3.25-4.62-5.7-6.07-2.45-1.45-5.28-2.18-8.47-2.18-3.2 0-6.03.73-8.47 2.18-2.45 1.45-4.4 3.47-5.85 6.07-1.45 2.6-2.17 5.6-2.17 9 0 3.3.7 6.25 2.1 8.85 1.4 2.6 3.35 4.65 5.85 6.15s5.29 2.26 8.39 2.26zm15.45 19.2v-19.65l3.45-17.7-3.45-17.7V244.5h22.5v72.9h-22.5zM562.5 317.4V208.5h22.95v53.85l-3.75 17.7 3.45 17.7v19.65H562.5zm42 1.5c-4.9 0-9.4-1.03-13.5-3.07-4.1-2.05-7.45-4.8-10.05-8.25-2.6-3.45-4.1-7.32-4.5-11.62V265.2c.4-4.3 1.9-8.12 4.5-11.47 2.6-3.35 5.95-5.97 10.05-7.88 4.1-1.9 8.6-2.85 13.5-2.85 6.9 0 13.02 1.65 18.38 4.95 5.35 3.3 9.55 7.8 12.6 13.5 3.05 5.7 4.58 12.2 4.58 19.5s-1.53 13.8-4.58 19.5c-3.05 5.7-7.25 10.2-12.6 13.5-5.36 3.3-11.49 4.95-18.38 4.95zm-4.05-20.7c3.2 0 6.02-.75 8.47-2.25 2.45-1.5 4.38-3.55 5.78-6.15 1.4-2.6 2.1-5.55 2.1-8.85 0-3.4-.7-6.4-2.1-9-1.4-2.6-3.33-4.62-5.78-6.07-2.45-1.45-5.27-2.18-8.47-2.18-3.2 0-6.05.73-8.55 2.18-2.5 1.45-4.43 3.47-5.78 6.07-1.35 2.6-2.03 5.6-2.03 9s.7 6.4 2.1 9c1.4 2.6 3.33 4.62 5.78 6.07 2.45 1.46 5.28 2.18 8.48 2.18zM686.84 319.05c-7.5 0-14.28-1.67-20.32-5.03-6.05-3.35-10.82-7.92-14.32-13.72-3.5-5.8-5.25-12.3-5.25-19.5 0-7.2 1.75-13.65 5.25-19.35 3.5-5.7 8.25-10.22 14.25-13.58 6-3.35 12.8-5.03 20.4-5.03 7.6 0 14.4 1.65 20.4 4.95 6 3.3 10.75 7.82 14.25 13.57s5.25 12.23 5.25 19.43c0 7.2-1.75 13.7-5.25 19.5-3.5 5.8-8.25 10.38-14.25 13.72-6.01 3.37-12.81 5.04-20.41 5.04zm0-20.85c3.3 0 6.2-.72 8.7-2.18 2.5-1.45 4.42-3.5 5.77-6.15 1.35-2.65 2.03-5.67 2.03-9.07 0-3.4-.7-6.37-2.1-8.92-1.4-2.55-3.33-4.55-5.78-6-2.45-1.45-5.32-2.18-8.62-2.18-3.2 0-6.05.73-8.55 2.18-2.5 1.45-4.45 3.47-5.85 6.07-1.4 2.6-2.1 5.6-2.1 9 0 3.3.7 6.28 2.1 8.92 1.4 2.65 3.35 4.7 5.85 6.15 2.5 1.46 5.35 2.18 8.55 2.18zM738.14 317.4v-72.9h22.95v72.9h-22.95zm22.95-40.05-9.6-7.5c1.9-8.5 5.1-15.1 9.6-19.8 4.5-4.7 10.75-7.05 18.75-7.05 3.5 0 6.57.53 9.22 1.58 2.65 1.05 4.97 2.68 6.97 4.88l-13.65 17.25c-1-1.1-2.25-1.95-3.75-2.55-1.5-.6-3.2-.9-5.1-.9-3.8 0-6.82 1.18-9.07 3.53-2.24 2.34-3.37 5.86-3.37 10.56zM835.19 318.9c-6.7 0-12.68-1.65-17.93-4.95s-9.4-7.8-12.45-13.5c-3.05-5.7-4.57-12.2-4.57-19.5s1.52-13.8 4.57-19.5c3.05-5.7 7.2-10.2 12.45-13.5s11.22-4.95 17.93-4.95c4.9 0 9.32.95 13.27 2.85 3.95 1.9 7.18 4.53 9.68 7.88 2.5 3.35 3.9 7.17 4.2 11.47v31.5c-.3 4.3-1.68 8.12-4.12 11.47-2.45 3.35-5.67 5.98-9.67 7.88-4.01 1.9-8.46 2.85-13.36 2.85zm4.65-20.7c4.9 0 8.85-1.62 11.85-4.88s4.5-7.38 4.5-12.38c0-3.4-.68-6.4-2.03-9-1.35-2.6-3.25-4.62-5.7-6.07-2.45-1.45-5.28-2.18-8.47-2.18-3.2 0-6.03.73-8.47 2.18-2.45 1.45-4.4 3.47-5.85 6.07-1.45 2.6-2.17 5.6-2.17 9 0 3.3.7 6.25 2.1 8.85 1.4 2.6 3.35 4.65 5.85 6.15s5.29 2.26 8.39 2.26zm15.45 19.2v-19.65l3.45-17.7-3.45-17.7V244.5h22.5v72.9h-22.5zM887.84 264v-19.5h55.95V264h-55.95zm16.5 53.4V214.35h22.95V317.4h-22.95zM988.94 319.05c-7.5 0-14.28-1.67-20.32-5.03-6.05-3.35-10.82-7.92-14.32-13.72-3.5-5.8-5.25-12.3-5.25-19.5 0-7.2 1.75-13.65 5.25-19.35 3.5-5.7 8.25-10.22 14.25-13.58 6-3.35 12.8-5.03 20.4-5.03 7.6 0 14.4 1.65 20.4 4.95 6 3.3 10.75 7.82 14.25 13.57s5.25 12.23 5.25 19.43c0 7.2-1.75 13.7-5.25 19.5-3.5 5.8-8.25 10.38-14.25 13.72-6.01 3.37-12.81 5.04-20.41 5.04zm0-20.85c3.3 0 6.2-.72 8.7-2.18 2.5-1.45 4.42-3.5 5.77-6.15 1.35-2.65 2.03-5.67 2.03-9.07 0-3.4-.7-6.37-2.1-8.92-1.4-2.55-3.33-4.55-5.78-6-2.45-1.45-5.32-2.18-8.62-2.18-3.2 0-6.05.73-8.55 2.18-2.5 1.45-4.45 3.47-5.85 6.07-1.4 2.6-2.1 5.6-2.1 9 0 3.3.7 6.28 2.1 8.92 1.4 2.65 3.35 4.7 5.85 6.15 2.5 1.46 5.35 2.18 8.55 2.18zM1040.23 317.4v-72.9h22.95v72.9h-22.95zm22.96-40.05-9.6-7.5c1.9-8.5 5.1-15.1 9.6-19.8 4.5-4.7 10.75-7.05 18.75-7.05 3.5 0 6.57.53 9.22 1.58 2.65 1.05 4.97 2.68 6.97 4.88l-13.65 17.25c-1-1.1-2.25-1.95-3.75-2.55-1.5-.6-3.2-.9-5.1-.9-3.8 0-6.82 1.18-9.07 3.53-2.25 2.34-3.37 5.86-3.37 10.56zM1129.33 317.7l-30-73.2h24.75l19.05 58.05h-9.15l19.5-58.05h24.75l-31.2 73.2h-17.7zm-18.75 30.45 21.9-47.25 14.55 16.8-12.9 30.45h-23.55z"/>
  </g>
  <path fill="#979797" d="M291 50H71c-22 0-40 18-40 40v220c0 22 18 40 40 40h220c22 0 40-18 40-40V90c0-22-18-40-40-40zm-24.63 59.7-65.73 180.6c-.94 2.58-3.96 4.7-6.71 4.7h-95c-2.75 0-4.23-2.11-3.29-4.7l65.73-180.6c.94-2.58 3.96-4.7 6.71-4.7h95c2.75 0 4.23 2.11 3.29 4.7z"/>
  <path fill="#979797" d="M233.87 295.3c-.94 2.58-3.96 4.7-6.71 4.7h-70c-2.75 0-4.23-2.11-3.29-4.7l40.26-110.6c.94-2.58 3.96-4.7 6.71-4.7h70c2.75 0 4.23 2.11 3.29 4.7l-40.26 110.6z"/>
</svg>
