<svg xmlns="http://www.w3.org/2000/svg" xml:space="preserve" width="170" height="200" overflow="visible"><path fill="#FFF" d="M45 170c-3.999 0-7.5-1.499-10.5-4.502-3-2.998-4.5-6.499-4.5-10.498V15c0-3.999 1.499-7.5 4.5-10.5S41.001 0 45 0h110c3.999 0 7.5 1.499 10.498 4.5C168.501 7.5 170 11.001 170 15v140c0 3.999-1.499 7.5-4.502 10.498C162.5 168.501 158.999 170 155 170H45zm0-15h110V15H45v140zm-30 45c-3.999 0-7.5-1.499-10.5-4.502C1.499 192.5 0 188.999 0 185V30h15v155h125v15H15zm30-45V15v140z"/></svg>