<svg xmlns="http://www.w3.org/2000/svg" xml:space="preserve" width="240.002" height="200" overflow="visible"><g fill="#FFF"><path d="M144.789 107.129c-7.973-8.907-19.055-13.91-33.271-14.994 12.645-3.446 21.828-8.488 27.636-15.227 5.787-6.646 8.656-15.671 8.656-27.029 0-8.987-1.968-16.942-5.778-23.813-3.901-6.825-9.514-12.292-16.881-16.385-6.455-3.551-14.123-6.05-23.06-7.526C93.113.723 77.394 0 54.844 0H0v200h56.502c22.699 0 39.066-.797 49.077-2.313 9.997-1.576 18.388-4.219 25.181-7.846 8.395-4.433 14.804-10.742 19.28-18.85 4.502-8.13 6.74-17.504 6.74-28.229 0-14.828-3.997-26.75-11.991-35.633M50.642 44.343h11.704c13.528 0 22.616 1.524 27.305 4.565 4.633 3.054 6.993 8.33 6.993 15.84 0 7.228-2.515 12.32-7.482 15.307-5.029 2.931-14.206 4.416-27.634 4.416H50.642V44.343zm46.429 114.688c-5.323 3.27-14.504 4.876-27.379 4.876h-19.05v-43.694h19.873c13.226 0 22.365 1.663 27.227 4.985 4.94 3.327 7.37 9.196 7.37 17.622-.001 7.541-2.664 12.958-8.041 16.211M214.674 149.334c-13.999 0-25.342 11.33-25.342 25.328 0 13.999 11.343 25.338 25.342 25.338 13.977 0 25.328-11.339 25.328-25.338 0-13.998-11.352-25.328-25.328-25.328M192.668 0h43.999v133.332h-43.999z"/></g></svg>