<svg xmlns="http://www.w3.org/2000/svg" xml:space="preserve" width="200" height="190.568" overflow="visible"><path fill="#FFF" d="M200 81.151C200 36.405 155.141 0 100 0S0 36.405 0 81.151c0 40.117 35.617 73.719 83.626 80.063 3.262.703 7.695 2.146 8.81 4.931 1.013 2.53.666 6.495.328 9.045 0 0-1.171 7.057-1.424 8.558-.441 2.53-2.015 9.888 8.661 5.399 10.675-4.491 57.587-33.912 78.564-58.066C193.055 115.194 200 99.035 200 81.151z"/><path fill="#06C755" d="M166.727 106.993h-28.119a1.875 1.875 0 0 1-1.874-1.875V61.487c0-1.035.839-1.875 1.874-1.875h28.119c1.035 0 1.874.839 1.874 1.875v7.095a1.874 1.874 0 0 1-1.874 1.875h-19.093v7.358h19.093c1.035 0 1.874.839 1.874 1.875v7.161a1.875 1.875 0 0 1-1.874 1.875h-19.093v7.366h19.093c1.035 0 1.874.84 1.874 1.875v7.087a1.873 1.873 0 0 1-1.808 1.938l-.066.001zM62.809 106.993c1.035 0 1.875-.84 1.875-1.875v-7.086a1.874 1.874 0 0 0-1.875-1.875H43.716V61.478a1.874 1.874 0 0 0-1.875-1.875h-7.124a1.875 1.875 0 0 0-1.875 1.875v43.612c0 1.035.839 1.875 1.875 1.875h28.119l-.027.028zM72.631 59.528h7.086c1.056 0 1.912.856 1.912 1.912v43.641a1.912 1.912 0 0 1-1.912 1.912h-7.086a1.912 1.912 0 0 1-1.912-1.912V61.44c0-1.056.857-1.912 1.912-1.912zM127.997 59.528h-7.087a1.875 1.875 0 0 0-1.874 1.875v25.925L99.072 60.362a1.116 1.116 0 0 0-.159-.197l-.113-.112-.103-.084h-.056l-.103-.075h-.056l-.103-.056H90.44a1.875 1.875 0 0 0-1.875 1.875v43.64c0 1.035.839 1.875 1.875 1.875h7.095c1.035 0 1.875-.84 1.875-1.875v-26.18l19.993 26.993c.131.192.296.357.486.488l.114.075h.056l.094.047H120.443c.166.041.337.063.507.065h7.048a1.875 1.875 0 0 0 1.875-1.874V61.44a1.875 1.875 0 0 0-1.837-1.912h-.039z"/></svg>